<svg width="16" height="16" viewBox="0 0 16 16" fill="none" xmlns="http://www.w3.org/2000/svg">
<path d="M2 16C0.895431 16 -3.91405e-08 15.1046 -8.74228e-08 14L-6.11959e-07 2C-6.60242e-07 0.895432 0.89543 9.14534e-07 2 8.66252e-07L14 3.41715e-07C15.1046 2.93433e-07 16 0.895431 16 2L16 14C16 15.1046 15.1046 16 14 16L2 16Z" fill="white"/>
<path d="M2 15.5C1.17157 15.5 0.5 14.8284 0.5 14L0.499999 2C0.499999 1.17157 1.17157 0.500001 2 0.500001L14 0.5C14.8284 0.5 15.5 1.17157 15.5 2L15.5 14C15.5 14.8284 14.8284 15.5 14 15.5L2 15.5Z" stroke="black" stroke-opacity="0.05"/>
</svg>
